<svg width="435" height="205" viewBox="0 0 435 205" fill="none" xmlns="http://www.w3.org/2000/svg">
    <path
        d="M3 120.198C3 120.198 55.8542 40.1072 100.056 40.0001C144.388 39.8927 167.045 74.7992 197.112 119.129C230.111 167.782 246.028 202 293.779 202C336.096 202 392 120.198 392 120.198"
        stroke="#FF0000" stroke-width="5" stroke-linecap="round" />
    <path
        d="M95.2188 51.6477C94.3822 41.9558 90.9893 34.4318 85.0401 29.0758C79.0908 23.7197 71.7937 21.0417 63.1488 21.0417C56.8277 21.0417 51.2968 22.4444 46.556 25.25C41.8617 28.0556 38.1899 31.9132 35.5406 36.8229C32.9378 41.7326 31.6364 47.3119 31.6364 53.5606C31.6364 58.7891 32.5427 63.2844 34.3554 67.0464C36.2145 70.7446 38.5849 73.8371 41.4666 76.3239C44.3482 78.7468 47.3693 80.7554 50.5299 82.3494C53.6904 83.8797 56.5953 85.1231 59.2446 86.0795L73.7458 91.4356C77.4641 92.7746 81.6007 94.6237 86.1556 96.983C90.7569 99.3422 95.1491 102.562 99.3322 106.643C103.562 110.66 107.048 115.825 109.79 122.137C112.532 128.45 113.903 136.197 113.903 145.379C113.903 155.963 111.881 165.528 107.838 174.072C103.841 182.616 97.9843 189.407 90.2689 194.444C82.6 199.481 73.281 202 62.3121 202C52.0869 202 43.2328 199.736 35.7497 195.209C28.3132 190.682 22.4569 184.37 18.1809 176.272C13.9514 168.174 11.5577 158.769 11 148.057H28.8477C29.3125 155.453 31.1251 161.575 34.2857 166.42C37.4927 171.203 41.5363 174.773 46.4165 177.133C51.3432 179.428 56.6418 180.576 62.3121 180.576C68.9121 180.576 74.8381 179.109 80.0901 176.176C85.3422 173.179 89.502 169.035 92.5696 163.742C95.6372 158.386 97.1709 152.138 97.1709 144.996C97.1709 138.492 95.8463 133.2 93.197 129.119C90.5478 125.039 87.0619 121.723 82.7394 119.172C78.4169 116.622 73.7458 114.39 68.7262 112.477L51.1573 105.591C40.0025 101.191 31.1716 94.9107 24.6646 86.7491C18.1577 78.5874 14.9042 67.9072 14.9042 54.7083C14.9042 43.7412 17.0654 34.1768 21.3879 26.0152C25.7569 17.7898 31.6132 11.4135 38.9568 6.88637C46.3468 2.29546 54.5967 0 63.7065 0C72.9092 0 81.0894 2.26357 88.2471 6.79072C95.4048 11.2541 101.075 17.3753 105.258 25.1544C109.488 32.9334 111.719 41.7645 111.951 51.6477H95.2188Z"
        fill="#000000" />
    <path
        d="M239.935 63.8902C238.401 57.4501 236.38 51.6796 233.87 46.5786C231.406 41.4138 228.455 37.0142 225.016 33.3797C221.623 29.7453 217.765 26.9716 213.442 25.0587C209.12 23.1458 204.379 22.1894 199.22 22.1894C190.761 22.1894 183.069 25.1862 176.144 31.1799C169.218 37.1736 163.711 46.0047 159.62 57.6733C155.53 69.3419 153.485 83.6566 153.485 100.617C153.485 117.578 155.554 131.893 159.69 143.562C163.827 155.23 169.427 164.061 176.492 170.055C183.557 176.049 191.505 179.045 200.336 179.045C208.516 179.045 215.72 176.654 221.948 171.872C228.223 167.026 233.103 160.204 236.589 151.404C240.121 142.541 241.887 132.116 241.887 120.129L247.186 121.659C247.186 121.659 209.881 143.327 204.24 121.659C202.225 113.921 202.614 108.526 204.24 100.617C210.005 72.5774 258.619 100.617 258.619 100.617V121.659C258.619 137.791 256.11 151.819 251.09 163.742C246.117 175.666 239.238 184.912 230.454 191.479C221.716 197.983 211.676 201.235 200.336 201.235C187.693 201.235 176.585 197.154 167.011 188.992C157.482 180.831 150.046 169.226 144.701 154.178C139.402 139.13 136.753 121.277 136.753 100.617C136.753 85.1231 138.264 71.191 141.285 58.821C144.352 46.3873 148.675 35.8027 154.252 27.0672C159.83 18.3318 166.43 11.6367 174.052 6.98201C181.674 2.32734 190.064 0 199.22 0C206.75 0 213.768 1.56218 220.275 4.68655C226.828 7.74715 232.661 12.1149 237.774 17.7898C242.933 23.4009 247.232 30.1278 250.672 37.9706C254.111 45.7497 256.481 54.3895 257.783 63.8902H239.935Z"
        fill="#000000" />
    <path
        d="M366.316 51.6477C365.479 41.9558 362.086 34.4318 356.137 29.0758C350.188 23.7197 342.891 21.0417 334.246 21.0417C327.925 21.0417 322.394 22.4444 317.653 25.25C312.958 28.0556 309.287 31.9132 306.637 36.8229C304.035 41.7326 302.733 47.3119 302.733 53.5606C302.733 58.7891 303.64 63.2844 305.452 67.0464C307.311 70.7446 309.682 73.8371 312.563 76.3239C315.445 78.7468 318.466 80.7554 321.627 82.3494C324.787 83.8797 327.692 85.1231 330.341 86.0795L344.843 91.4356C348.561 92.7746 352.698 94.6237 357.252 96.983C361.854 99.3422 366.246 102.562 370.429 106.643C374.659 110.66 378.144 115.825 380.887 122.137C383.629 128.45 385 136.197 385 145.379C385 155.963 382.978 165.528 378.935 174.072C374.937 182.616 369.081 189.407 361.366 194.444C353.697 199.481 344.378 202 333.409 202C323.184 202 314.33 199.736 306.847 195.209C299.41 190.682 293.554 184.37 289.278 176.272C285.048 168.174 258.619 100.617 258.619 100.617L299.945 148.057C300.409 155.453 302.222 161.575 305.383 166.42C308.59 171.203 312.633 174.773 317.513 177.133C322.44 179.428 327.739 180.576 333.409 180.576C340.009 180.576 345.935 179.109 351.187 176.176C356.439 173.179 360.599 169.035 363.666 163.742C366.734 158.386 368.268 152.138 368.268 144.996C368.268 138.492 366.943 133.2 364.294 129.119C361.645 125.039 358.159 121.723 353.836 119.172C349.514 116.622 344.843 114.39 339.823 112.477L322.254 105.591C311.099 101.191 302.268 94.9107 295.761 86.7491C289.255 78.5874 286.001 67.9072 286.001 54.7083C286.001 43.7412 288.162 34.1768 292.485 26.0152C296.854 17.7898 302.71 11.4135 310.054 6.88637C317.444 2.29546 325.694 0 334.803 0C344.006 0 352.186 2.26357 359.344 6.79072C366.502 11.2541 372.172 17.3753 376.355 25.1544C380.585 32.9334 382.816 41.7645 383.048 51.6477H366.316Z"
        fill="#000000" />
    <path
        d="M425.588 90.9822C424.367 89.2367 422.927 88.4277 421.264 88.0368C420.952 86.693 420.566 85.6615 420.104 84.4236C416.56 74.9333 409.275 69.645 401.659 70.5841C399.968 66.5637 396.106 64.8561 392.954 67.0793C389.801 69.3024 388.558 74.6094 389.799 78.9474C384.802 86.901 383.68 98.1177 387.224 107.608C387.686 108.846 388.222 109.772 388.684 111.01C387.868 112.888 387.584 115.174 388.054 117.449C388.374 119.829 389.521 121.887 390.965 123.214C392.409 124.542 394.3 125.033 396.032 124.594C396.56 124.482 397.16 124.059 397.611 123.741C398.512 123.106 399.258 122.058 400.005 121.01C404.09 122.3 408.46 121.304 412.214 118.657C415.967 116.011 418.877 111.613 420.724 106.401C421.856 106.385 422.834 105.956 423.735 105.321C424.185 105.003 424.786 104.58 425.159 104.056C426.429 102.378 427.318 100.187 427.299 97.595C427.506 95.103 426.809 92.7277 425.588 90.9822ZM401.179 116.534C401.171 115.497 401.163 114.46 401.155 113.423C400.835 111.042 399.687 108.985 398.243 107.657C396.799 106.33 394.909 105.838 393.176 106.278C392.348 106.601 391.748 107.025 391.147 107.448C390.766 106.935 390.458 106.11 390.227 105.491C387.453 98.0635 388.141 89.2384 391.94 82.6502C393.992 84.5912 396.715 85.278 399.117 83.5842C401.519 81.8904 402.777 78.6573 402.75 75.0279C408.783 74.4227 414.401 78.8015 417.252 86.435C417.483 87.054 417.791 87.8792 417.872 88.604C417.271 89.0275 416.521 89.5568 415.997 90.1866C414.727 91.8642 413.838 94.0548 413.858 96.6473C413.8 99.0334 414.347 101.515 415.568 103.26C416.027 103.979 416.635 104.593 417.394 105.101C415.916 109.27 413.525 112.52 410.673 114.531C407.82 116.542 404.505 117.316 401.179 116.534Z"
        fill="#FF0000" />
</svg>