<svg width="233" height="202" viewBox="0 0 233 202" fill="none" xmlns="http://www.w3.org/2000/svg">
    <circle cx="224.5" cy="90.5" r="8.5" fill="#00ff00" />
    <path
        d="M3 100.555C3 100.555 32.3484 56.0596 56.8922 56.0001C81.5083 55.9405 94.0895 75.3329 110.784 99.9604C129.108 126.99 137.946 146 164.461 146C187.958 146 223 92.5 223 92.5"
        stroke="#00ff00" stroke-width="5" stroke-linecap="round" />
    <path
        d="M93.2188 51.6477C92.3822 41.9558 88.9893 34.4318 83.0401 29.0758C77.0908 23.7197 69.7937 21.0417 61.1488 21.0417C54.8277 21.0417 49.2968 22.4444 44.556 25.25C39.8617 28.0556 36.1899 31.9132 33.5406 36.8229C30.9378 41.7326 29.6364 47.3119 29.6364 53.5606C29.6364 58.7891 30.5427 63.2844 32.3554 67.0464C34.2145 70.7446 36.5849 73.8371 39.4666 76.3239C42.3482 78.7468 45.3693 80.7554 48.5299 82.3494C51.6904 83.8797 54.5953 85.1231 57.2446 86.0795L71.7458 91.4356C75.4641 92.7746 79.6007 94.6237 84.1556 96.983C88.7569 99.3422 93.1491 102.562 97.3322 106.643C101.562 110.66 105.048 115.825 107.79 122.137C110.532 128.45 111.903 136.197 111.903 145.379C111.903 155.963 109.881 165.528 105.838 174.072C101.841 182.616 95.9843 189.407 88.2689 194.444C80.6 199.481 71.281 202 60.3121 202C50.0869 202 41.2328 199.736 33.7497 195.209C26.3132 190.682 20.4569 184.37 16.1809 176.272C11.9514 168.174 9.55774 158.769 9 148.057H26.8477C27.3125 155.453 29.1251 161.574 32.2857 166.42C35.4927 171.203 39.5363 174.773 44.4165 177.133C49.3432 179.428 54.6418 180.576 60.3121 180.576C66.9121 180.576 72.8381 179.109 78.0901 176.176C83.3422 173.179 87.502 169.035 90.5696 163.742C93.6372 158.386 95.1709 152.138 95.1709 144.996C95.1709 138.492 93.8463 133.2 91.197 129.119C88.5478 125.039 85.0619 121.723 80.7394 119.172C76.4169 116.622 71.7458 114.39 66.7262 112.477L49.1573 105.591C38.0025 101.191 29.1716 94.9107 22.6646 86.7491C16.1577 78.5874 12.9042 67.9072 12.9042 54.7083C12.9042 43.7412 15.0654 34.1768 19.3879 26.0152C23.7569 17.7898 29.6132 11.4135 36.9568 6.88637C44.3468 2.29546 52.5967 0 61.7065 0C70.9092 0 79.0894 2.26357 86.2471 6.79072C93.4048 11.2541 99.0751 17.3753 103.258 25.1544C107.488 32.9334 109.719 41.7645 109.951 51.6477H93.2188Z"
        fill="#fff" />
    <path
        d="M146.935 63.8902C145.401 57.4501 143.38 51.6796 140.87 46.5786C138.406 41.4138 135.455 37.0142 132.016 33.3797C128.623 29.7453 124.765 26.9716 120.442 25.0587C116.12 23.1458 111.379 22.1894 106.22 22.1894C97.761 22.1894 90.0688 25.1862 83.1435 31.1799C76.2183 37.1736 70.7106 46.0047 66.6205 57.6733C62.5304 69.3419 60.4853 83.6566 60.4853 100.617C60.4853 117.578 62.5536 131.893 66.6902 143.562C70.8268 155.23 76.4274 164.061 83.4921 170.055C90.5568 176.049 98.5046 179.045 107.336 179.045C115.516 179.045 122.72 176.654 128.948 171.872C135.223 167.026 140.103 160.204 143.589 151.404C147.121 142.541 148.887 132.116 148.887 120.129L154.186 121.659C154.186 121.659 116.881 143.327 111.24 121.659C109.225 113.921 109.614 108.526 111.24 100.617C117.005 72.5774 165.619 100.617 165.619 100.617V121.659C165.619 137.791 163.11 151.819 158.09 163.742C153.117 175.666 146.238 184.912 137.454 191.479C128.716 197.983 118.676 201.235 107.336 201.235C94.6934 201.235 83.5851 197.154 74.0105 188.992C64.4825 180.831 57.0459 169.226 51.7009 154.178C46.4024 139.13 43.7531 121.277 43.7531 100.617C43.7531 85.1231 45.2636 71.191 48.2847 58.821C51.3523 46.3873 55.6748 35.8027 61.2522 27.0672C66.8296 18.3318 73.4296 11.6367 81.052 6.98201C88.6745 2.32734 97.0638 0 106.22 0C113.75 0 120.768 1.56219 127.275 4.68655C133.828 7.74716 139.661 12.1149 144.774 17.7898C149.933 23.4009 154.232 30.1278 157.672 37.9706C161.111 45.7497 163.481 54.3895 164.783 63.8902H146.935Z"
        fill="#FF0000" />
    <path
        d="M193.316 51.6477C192.479 41.9558 189.086 34.4318 183.137 29.0758C177.188 23.7197 169.891 21.0417 161.246 21.0417C154.925 21.0417 149.394 22.4444 144.653 25.25C139.958 28.0556 136.287 31.9132 133.637 36.8229C131.035 41.7326 129.733 47.3119 129.733 53.5606C129.733 58.7891 130.64 63.2844 132.452 67.0464C134.311 70.7446 136.682 73.8371 139.563 76.3239C142.445 78.7468 145.466 80.7554 148.627 82.3494C151.787 83.8797 154.692 85.1231 157.341 86.0795L171.843 91.4356C175.561 92.7746 179.698 94.6237 184.252 96.983C188.854 99.3422 193.246 102.562 197.429 106.643C201.659 110.66 205.144 115.825 207.887 122.137C210.629 128.45 212 136.197 212 145.379C212 155.963 209.978 165.528 205.935 174.072C201.937 182.616 196.081 189.407 188.366 194.444C180.697 199.481 171.378 202 160.409 202C150.184 202 141.33 199.736 133.847 195.209C126.41 190.682 120.554 184.37 116.278 176.272C112.048 168.174 165.619 100.617 165.619 100.617L126.945 148.057C127.409 155.453 129.222 161.574 132.383 166.42C135.59 171.203 139.633 174.773 144.513 177.133C149.44 179.428 154.739 180.576 160.409 180.576C167.009 180.576 172.935 179.109 178.187 176.176C183.439 173.179 187.599 169.035 190.666 163.742C193.734 158.386 195.268 152.138 195.268 144.996C195.268 138.492 193.943 133.2 191.294 129.119C188.645 125.039 185.159 121.723 180.836 119.172C176.514 116.622 171.843 114.39 166.823 112.477L149.254 105.591C138.099 101.191 129.268 94.9107 122.761 86.7491C116.254 78.5874 113.001 67.9072 113.001 54.7083C113.001 43.7412 115.162 34.1768 119.485 26.0152C123.854 17.7898 129.71 11.4135 137.054 6.88636C144.444 2.29545 152.694 0 161.803 0C171.006 0 179.186 2.26357 186.344 6.79072C193.502 11.2541 199.172 17.3753 203.355 25.1544C207.585 32.9334 209.816 41.7645 210.048 51.6477H193.316Z"
        fill="#fff" />
</svg>